<svg width="64" height="66" viewBox="0 0 64 66" fill="none" xmlns="http://www.w3.org/2000/svg">
<path d="M45.5107 0.00816352C47.2573 0.00244779 49.0024 -0.00435406 50.749 0.00367691C51.9833 0.00939264 53.1715 0.430767 53.8489 1.5292C55.0588 3.49201 52.8728 5.86578 51.8333 7.55315L43.5672 20.8542C38.9025 28.4346 34.3777 36.1008 29.9958 43.8496C28.3992 46.714 26.8225 49.5892 25.2659 52.4753C23.9163 54.9642 22.5944 57.4914 21.0199 59.8471C19.8064 61.6617 18.1994 63.3164 16.2632 64.3488C15.0115 65.0159 13.6625 65.4225 12.2697 65.6656C10.7507 65.9311 3.19747 66.1511 1.89696 65.7264C1.18029 65.492 0.571413 65.0181 0.254781 64.3221C0.0515559 63.8757 -0.0133705 63.3887 0.00221223 62.9011C0.0465076 61.5134 0.416306 60.0562 0.639587 58.6845C0.862867 57.312 0.961702 55.522 1.45739 54.2472C2.39055 51.8473 6.27794 52.7575 8.30312 52.5469C9.14747 52.4587 9.87828 52.2083 10.6472 51.8581C11.9801 51.1325 13.3436 49.7368 13.4353 48.1313C13.5324 46.4318 13.4205 44.6216 13.3782 42.9112L13.2514 34.6748L12.9886 17.8082C12.9106 13.3332 12.8619 8.858 12.7742 4.38331C12.751 3.19429 13.1001 2.06489 13.9815 1.2288C14.4534 0.785502 15.0319 0.472586 15.6604 0.320504C17.1888 -0.063897 19.8716 0.29612 21.5295 0.164224C22.5252 0.144978 23.622 0.513822 24.277 1.26295C25.4191 2.56917 24.9926 4.90626 24.911 6.54928L24.6516 12.2119L23.7799 31.9758L37.0015 10.161C38.1861 8.19577 39.3808 6.23665 40.5856 4.28353C41.9303 2.08138 42.576 0.170592 45.5107 0.00816352Z" fill="white"/>
<path d="M46.916 27.7852C50.4431 27.9076 50.3774 30.4525 50.2988 33.0993C50.2771 33.8411 50.2995 34.6399 50.2995 35.3851L50.3009 46.0844C52.2654 44.2062 54.7139 40.3455 57.7359 42.2259C58.4689 42.6825 58.9811 43.4219 59.1535 44.2698C59.6246 46.4975 57.873 47.6812 56.4648 49.0971L52.3555 53.2276C51.2511 54.3368 50.0665 55.5631 48.9194 56.6383C48.4938 57.0369 47.7341 57.1946 47.1642 57.2836C46.4594 57.259 45.5814 57.0405 45.0742 56.5485C43.5535 55.0755 42.0406 53.5264 40.5444 52.0302L37.3745 48.8678C36.3032 47.7984 34.8683 46.7254 34.8084 45.1301C34.7738 44.217 35.1135 43.3307 35.7498 42.6767C36.332 42.0776 37.1934 41.7202 38.0252 41.7122C38.6074 41.7036 39.1802 41.8606 39.678 42.1637C40.372 42.579 42.9626 45.3334 43.7245 46.083C43.7519 42.5327 43.7576 38.9832 43.7425 35.4329C43.741 34.197 43.7396 32.9586 43.7418 31.725C43.7432 30.666 43.762 29.7088 44.4964 28.8628C45.1875 28.0659 45.9212 27.8692 46.916 27.7852Z" fill="#BEDBFF"/>
</svg>
