<svg width="444" height="457" viewBox="0 0 444 457" fill="none" xmlns="http://www.w3.org/2000/svg">
<path d="M315.423 0.056416C327.528 0.016916 339.623 -0.0300898 351.728 0.0254102C360.283 0.0649102 368.518 2.97692 373.213 10.5679C381.598 24.1324 366.448 40.5369 359.243 52.1979L301.953 144.118C269.623 196.504 238.263 249.483 207.893 303.033C196.827 322.828 185.9 342.698 175.112 362.643C165.758 379.843 156.596 397.308 145.683 413.588C137.273 426.128 126.135 437.563 112.716 444.698C104.041 449.308 94.6913 452.118 85.0383 453.798C74.5103 455.633 22.1608 457.153 13.1473 454.218C8.18032 452.598 3.96032 449.323 1.76582 444.513C0.357321 441.428 -0.0926676 438.063 0.0153324 434.693C0.322332 425.103 2.88531 415.033 4.43281 405.553C5.98031 396.068 6.66531 383.698 10.1008 374.888C16.5683 358.303 43.5108 364.593 57.5468 363.138C63.3988 362.528 68.4638 360.798 73.7933 358.378C83.0308 353.363 92.4813 343.718 93.1168 332.623C93.7893 320.878 93.0138 308.368 92.7208 296.548L91.8423 239.628L90.0208 123.068C89.4803 92.1424 89.1423 61.2154 88.5348 30.2919C88.3738 22.0749 90.7933 14.2699 96.9023 8.4919C100.173 5.4284 104.182 3.26592 108.538 2.21492C119.131 -0.441576 137.725 2.04641 149.215 1.13491C156.116 1.00191 163.718 3.55089 168.258 8.72789C176.173 17.7549 173.217 33.9059 172.652 45.2604L170.854 84.3934L164.812 220.976L256.448 70.2199C264.658 56.6389 272.938 43.0999 281.288 29.6024C290.608 14.3839 295.083 1.17892 315.423 0.056416Z" fill="white"/>
<path d="M325.163 192.017C349.608 192.863 349.153 210.45 348.608 228.742C348.458 233.868 348.613 239.388 348.613 244.538L348.623 318.478C362.238 305.498 379.208 278.818 400.153 291.813C405.233 294.968 408.783 300.078 409.978 305.938C413.243 321.333 401.103 329.513 391.343 339.298L362.863 367.843C355.208 375.508 346.998 383.983 339.048 391.413C336.098 394.168 330.833 395.258 326.883 395.873C321.998 395.703 315.913 394.193 312.398 390.793C301.858 380.613 291.373 369.908 281.003 359.568L259.033 337.713C251.608 330.323 241.663 322.908 241.248 311.883C241.008 305.573 243.363 299.448 247.773 294.928C251.808 290.788 257.778 288.318 263.543 288.263C267.578 288.203 271.548 289.288 274.998 291.383C279.808 294.253 297.763 313.288 303.043 318.468C303.233 293.933 303.273 269.403 303.168 244.868C303.158 236.327 303.148 227.769 303.163 219.244C303.173 211.926 303.303 205.31 308.393 199.464C313.183 193.957 318.268 192.597 325.163 192.017Z" fill="#BEDBFF"/>
<path d="M223.378 372.953C226.558 372.683 229.763 373.118 232.758 374.233C247.513 379.843 240.798 396.833 246.193 407.978C253.793 423.678 272.439 420.388 287.049 420.368L326.818 420.348L364.388 420.353C373.118 420.348 387.273 421.583 394.963 417.963C409.753 411.008 406.598 397.333 409.198 384.553C410.078 381.303 413.728 375.813 417.083 374.798C449.338 365.023 445.793 402.483 439.038 419.598C431.583 436.243 418.263 449.783 400.208 454.093C388.393 456.913 373.674 455.958 361.359 455.938L321.523 455.928L284.513 455.973C276.578 455.983 266.643 456.298 258.963 455.348C251.068 454.443 243.458 451.868 236.638 447.783C223.223 439.713 213.518 426.703 209.598 411.543C207.783 404.338 206.258 387.228 210.738 381.068C214.498 375.898 217.553 374.348 223.378 372.953Z" fill="#BEDBFF"/>
</svg>
